<svg id="Layer_1" data-name="Layer 1" xmlns="http://www.w3.org/2000/svg" xmlns:xlink="http://www.w3.org/1999/xlink" viewBox="0 0 100 100"><defs><style>.cls-1{fill:none;}.cls-2{clip-path:url(#clip-path);}</style><clipPath id="clip-path"><rect class="cls-1" y="18.75" width="100" height="62.5"/></clipPath></defs><title>mail-black</title><polygon points="6.08 18.76 5.54 18.86 49.84 58.33 94.46 18.92 93.57 18.76 6.08 18.76"/><g class="cls-2"><path d="M99.57,22.9,68.07,50.73l31.1,27.21A6.18,6.18,0,0,0,100,75V25a5.92,5.92,0,0,0-.43-2.1"/><path d="M.49,22.58A6.32,6.32,0,0,0,0,25V75a6.22,6.22,0,0,0,.58,2.54L32,50.63Z"/></g><polygon points="6.22 81.19 6.56 81.25 93.78 81.25 63.64 54.89 50.29 66.68 36.98 54.82 6.22 81.19"/></svg>